<svg width="2081" height="1390" viewBox="0 0 2081 1390" fill="none" xmlns="http://www.w3.org/2000/svg">
<path d="M1976.71 797.431L2058.71 830.931L2044.21 869.431L1976.21 931.931L1928.71 990.431L1861.21 963.931L1832.21 1056.93H1692.21L1618.21 1083.43L1488.71 970.431L1455.21 1033.43H1405.21V1145.43L1293.71 1193.43L1199.71 1165.43L1177.71 1264.93L1051.71 1247.43V1179.43L968.214 1209.43L932.214 1296.93L860.214 1264.93L826.214 1354.93L646.714 1117.43L610.714 1165.43L584.714 1083.43L471.214 1069.43L399.214 1117.43L261.214 1009.43L171.714 1083.43L25.7139 1056.93L229.214 665.431L310.714 302.431L556.214 241.931L815.714 20.9312L1456.71 412.931L1564.21 447.431L1526.21 523.431L1605.71 630.931H1744.21L1883.21 693.431L1844.71 797.431L1914.21 838.931L1976.71 797.431Z" stroke="black" stroke-width="34"/>
</svg>
