<svg width="2323" height="2034" viewBox="0 0 2323 2034" fill="none" xmlns="http://www.w3.org/2000/svg">
<path d="M1489.7 1556.27L1401.7 1733.27L1142.2 1954.27L896.695 2014.77L496.695 1733.27L418.695 1726.27L169.195 1829.77L155.695 1861.27L30.1953 1762.27L69.1953 1733.27L19.6953 1715.77L30.1953 1665.77H90.6953L108.695 1487.77L151.195 1420.27H268.695L322.195 1330.77L436.195 1238.27L586.195 1263.27L667.695 1177.77L1262.7 892.77L1291.2 746.77L1120.2 703.77L1241.7 23.7698L1465.7 116.27L1754.7 408.27L1932.7 807.27L2164.2 910.77L2297.2 1022.77L2196.7 1119.77L2047.7 1369.27L1992.2 1400.27L1895.2 1369.27L1725.7 1400.27L1611.2 1511.27L1489.7 1556.27Z" stroke="black" stroke-width="34"/>
</svg>
