<svg width="7202" height="5806" viewBox="0 0 7202 5806" fill="none" xmlns="http://www.w3.org/2000/svg">
<path d="M7178.36 4209.65L7101.86 4099.15L7060.36 4005.15L6841.86 3974.15L6585.36 3835.65L6360.36 3780.15L6214.86 3693.65L6044.86 3638.15L5930.36 3572.15L5739.86 3496.15L5576.86 3475.15L5337.86 3347.15L5237.36 3444.15L5088.36 3693.65L5032.86 3724.65L4935.86 3693.65L4766.36 3724.65L4651.86 3835.65L4530.36 3880.65L4447.36 4060.65L5088.36 4452.65L5195.86 4487.15L5157.86 4563.15L5237.36 4670.65H5375.86L5514.86 4733.15L5476.36 4837.15L5545.86 4878.65L5608.36 4837.15L5705.36 4878.65L5906.36 4903.15L5930.36 4878.65L6114.36 4903.15L6173.36 4816.15L6332.36 4837.15L6311.86 4923.65L6360.36 4955.15L6446.86 4903.15L6585.36 4861.15L6734.36 4778.15H6841.86L6970.36 4591.15L7060.36 4404.15L7122.86 4452.65V4383.15L7060.36 4334.65L7101.86 4268.65L7178.36 4209.65Z" stroke="black" stroke-width="34"/>
<path d="M6307.86 4922.65L6356.36 4954.15L6328.36 5096.15H6240.86L6169.36 5174.65L6011.36 5232.65L5843.36 5248.65L5747.36 5336.15L5527.86 5368.15L5304.36 5394.15L5100.86 5482.15L5048.86 5522.15L5064.86 5647.65L4994.86 5749.65H4841.36L4781.36 5775.65L4677.36 5733.65H4581.86L4497.86 5787.65L4096.86 5733.65L3741.36 5683.65L3587.36 5635.65L3599.36 5540.15L3741.36 5346.15L3633.36 5156.65L3651.36 5096.15L3797.36 5122.65L3886.86 5048.65L4024.86 5156.65L4096.86 5108.65L4210.36 5122.65L4236.36 5204.65L4272.36 5156.65L4451.86 5394.15L4485.86 5304.15L4557.86 5336.15L4593.86 5248.65L4677.36 5218.65V5286.65L4803.36 5304.15L4825.36 5204.65L4919.36 5232.65L5030.86 5184.65V5072.65H5080.86L5114.36 5009.65L5243.86 5122.65L5317.86 5096.15H5457.86L5486.86 5003.15L5554.36 5029.65L5601.86 4971.15L5701.36 4877.65L5902.36 4902.15L5926.36 4877.65L6110.36 4902.15L6169.36 4815.15L6328.36 4836.15L6307.86 4922.65Z" stroke="black" stroke-width="34"/>
<path d="M5603.36 4834.15L5685.36 4867.65L5670.86 4906.15L5602.86 4968.65L5555.36 5027.15L5487.86 5000.65L5458.86 5093.65H5318.86L5244.86 5120.15L5115.36 5007.15L5081.86 5070.15H5031.86V5182.15L4920.36 5230.15L4826.36 5202.15L4804.36 5301.65L4678.36 5284.15V5216.15L4594.86 5246.15L4558.86 5333.65L4486.86 5301.65L4452.86 5391.65L4273.36 5154.15L4237.36 5202.15L4211.36 5120.15L4097.86 5106.15L4025.86 5154.15L3887.86 5046.15L3798.36 5120.15L3652.36 5093.65L3855.86 4702.15L3937.36 4339.15L4182.86 4278.65L4442.36 4057.65L5083.36 4449.65L5190.86 4484.15L5152.86 4560.15L5232.36 4667.65H5370.86L5509.86 4730.15L5471.36 4834.15L5540.86 4875.65L5603.36 4834.15Z" stroke="black" stroke-width="34"/>
<path d="M4530.36 3880.65L4442.36 4057.65L4182.86 4278.65L3937.36 4339.15L3537.36 4057.65L3459.36 4050.65L3209.86 4154.15L3196.36 4185.65L3070.86 4086.65L3109.86 4057.65L3060.36 4040.15L3070.86 3990.15H3131.36L3149.36 3812.15L3191.86 3744.65H3309.36L3362.86 3655.15L3476.86 3562.65L3626.86 3587.65L3708.36 3502.15L4303.36 3217.15L4331.86 3071.15L4160.86 3028.15L4282.36 2348.15L4506.36 2440.65L4795.36 2732.65L4973.36 3131.65L5204.86 3235.15L5337.86 3347.15L5237.36 3444.15L5088.36 3693.65L5032.86 3724.65L4935.86 3693.65L4766.36 3724.65L4651.86 3835.65L4530.36 3880.65Z" stroke="black" stroke-width="34"/>
<path d="M4160.86 3028.15L4282.36 2348.15L4179.86 2287.15L4123.36 2250.65L3906.86 2348.15L3233.36 2463.65L2714.86 2425.15L2605.36 2463.65L2395.36 2751.15L2449.36 2901.65L2421.36 3119.15L2449.36 3314.65L2569.36 3394.65L2529.36 3468.15L2590.86 3520.65L2744.36 3547.65L2920.86 3617.15L3010.86 3635.15L3051.86 3707.65L3102.36 3670.15L3135.86 3707.65L3163.86 3663.65L3191.86 3744.65H3309.36L3362.86 3655.15L3476.86 3562.65L3626.86 3587.65L3708.36 3502.15L4303.36 3217.15L4331.86 3071.15L4160.86 3028.15Z" stroke="black" stroke-width="34"/>
<path d="M2395.36 2751.15L2605.36 2463.65V2345.15L2490.86 1936.15L2464.86 1538.15L2538.86 1342.65L2475.86 1154.15L2367.86 1038.65L2265.86 1020.15L2162.36 936.651L2116.36 728.651L1985.36 506.151L1946.36 329.151L1938.86 230.151L1873.86 219.651L1904.86 168.651L1858.86 109.651L1841.86 42.1514L1736.86 18.6514L1647.36 109.651L1718.36 131.651L1674.86 182.151L1585.86 168.651L1559.36 219.651L1593.36 293.651L1525.36 387.651L1550.36 506.151L1619.36 574.151L1571.86 640.651L1451.36 600.651L1434.36 680.651L1395.86 690.151L1355.86 592.651L1195.36 565.151L1047.36 552.651L875.861 720.651L747.861 690.151L726.361 734.651L835.861 773.151V816.151L954.861 887.151L1063.36 1066.15L1179.36 1445.15L1237.36 1903.65L1300.36 2325.65L1411.36 2671.65L1962.86 3178.15L1931.36 3246.15L1962.86 3293.65V3443.65H2008.36L2067.36 3394.65L2162.36 3509.15L2230.86 3611.65H2319.36L2339.36 3509.15H2421.36L2529.36 3468.15L2569.36 3394.65L2449.36 3314.65L2421.36 3119.15L2449.36 2901.65L2395.36 2751.15Z" stroke="black" stroke-width="34"/>
<path d="M1962.86 3293.65V3443.65L1931.36 3464.65L1859.86 3424.65L1514.36 3464.65L1312.86 3322.15H989.361L912.861 3268.65L872.361 3293.65L790.861 3220.15V3268.65L681.361 3293.65L622.361 3204.65L449.361 3220.15L383.361 3178.15L319.361 3054.65L184.361 3108.15L113.361 3016.15L184.361 2922.15L153.861 2787.15L207.361 2687.65L69.8613 2407.65L18.8613 2165.65L69.8613 2127.15L207.361 2165.65L276.361 2221.65L342.361 2165.65L319.361 2040.65L242.861 2010.15V1933.65L268.361 1893.15V1778.15L319.361 1760.65L411.361 1933.65L428.861 1989.65L724.361 1806.15L701.361 1622.65L622.361 1602.65V1719.65L462.361 1806.15L411.361 1622.65V1299.15L222.861 1223.15L153.861 1138.65L166.361 1039.65L113.361 973.151L69.8613 861.151L151.361 848.651L184.361 942.651L306.861 968.151L411.361 996.151L467.361 930.151L357.861 909.651V861.151L428.861 816.151V746.651L357.861 685.651L428.861 596.151L497.861 667.651L533.361 797.651L663.361 887.151L724.361 816.151H835.861L954.861 887.151L1063.36 1066.15L1179.36 1445.15L1237.36 1903.65L1300.36 2325.65L1411.36 2671.65L1962.86 3178.15L1931.36 3246.15L1962.86 3293.65Z" stroke="black" stroke-width="34"/>
<path d="M2230.86 3611.65H2319.36L2346.86 3767.65L2226.36 3802.15L2278.36 3867.15L2190.36 3926.15V4027.15L2118.86 3994.65H1988.36L1931.36 4027.15L1859.86 3952.15H1802.36L1743.86 4059.65L1626.86 4144.65L1721.36 4255.15L1685.36 4343.15L1626.86 4359.65V4420.65L1514.36 4460.65L1470.36 4607.15L1424.86 4779.65L1312.86 4867.65L1232.36 4952.65L1007.36 5040.65V5141.65L912.861 5122.15L848.861 5236.65L670.361 5187.15L612.361 5016.65H658.861L670.361 4917.15L555.861 4844.15L473.361 4867.65L406.361 4834.65V4654.15H361.361V4556.65L216.361 4524.65L235.361 4420.65L383.361 4398.15L481.861 4170.65L426.861 3867.15L383.361 3824.65L426.861 3767.65L406.361 3560.65L320.361 3481.65L438.861 3404.15L383.361 3178.15L449.361 3220.15L622.361 3204.65L681.361 3293.65L790.861 3268.65V3220.15L872.361 3293.65L912.861 3268.65L989.361 3322.15H1312.86L1514.36 3464.65L1859.86 3424.65L1931.36 3464.65L1962.86 3443.65H2008.36L2067.36 3394.65L2162.36 3509.15L2230.86 3611.65Z" stroke="black" stroke-width="34"/>
<path d="M3633.36 5156.65L3652.36 5093.65L3855.86 4702.15L3935.86 4341.15L3537.36 4057.65L3459.36 4050.65L3209.86 4154.15L3196.36 4185.65L3147.36 4301.15L2944.36 4413.15V4516.65L3044.36 4557.65L2956.36 4883.15V4993.65L2894.36 5038.15L2846.36 5156.65H2909.86L2980.36 5222.65L3078.86 5208.65L3200.86 5312.15L3149.36 5475.65L3228.36 5599.65L3407.86 5635.65H3587.36L3599.36 5540.15L3741.36 5346.15L3633.36 5156.65Z" stroke="black" stroke-width="34"/>
<path d="M3196.36 4185.65L3070.86 4086.65L3109.86 4057.65L3060.36 4040.15L3070.86 3990.15H3131.36L3149.36 3812.15L3191.86 3744.65L3163.86 3663.65L3135.86 3707.65L3102.36 3670.15L3051.86 3707.65L3010.86 3635.15L2920.86 3617.15L2744.36 3547.65L2590.86 3520.65L2529.36 3468.15L2421.36 3509.15H2339.36L2319.36 3611.65L2346.86 3767.65L2226.36 3802.15L2278.36 3867.15L2190.36 3926.15V4027.15L2118.86 3994.65H1988.36L1931.36 4027.15L1859.86 3952.15H1802.36L1743.86 4059.65L1626.86 4144.65L1721.36 4255.15L1685.36 4343.15L1626.86 4359.65V4420.65L1685.36 4477.15L1765.86 4450.15L1802.36 4517.15V4585.15L1834.86 4651.15L1802.36 4720.15L1876.86 4800.65L1931.36 4758.65L2023.36 4800.65L2190.36 4773.65L2251.36 4720.15L2278.36 4800.65L2295.86 4854.65H2361.86L2394.86 4908.65H2478.86L2511.86 4938.65L2532.86 4883.65L2744.36 4938.65L2721.36 4994.15L2664.36 5038.65L2697.36 5100.65L2664.36 5136.15L2766.36 5226.15L2846.36 5157.15L2894.36 5038.65L2956.36 4994.15V4883.65L3044.36 4558.15L2944.36 4517.15V4413.65L3147.36 4301.65L3196.36 4186.15" stroke="black" stroke-width="34"/>
<path d="M2846.36 5156.65H2909.86L2980.36 5222.65L3078.86 5208.65L3200.86 5312.15L3149.36 5475.65L3228.36 5599.65L3128.86 5624.65L3047.36 5591.65L2511.86 5524.65L2478.86 5561.15L2434.36 5524.65L2394.86 5549.15L2336.86 5514.65L2185.86 5524.65L2118.86 5591.65H2065.86L2023.36 5624.65L1949.86 5591.65L1876.86 5667.15L1770.86 5624.65H1601.36L1503.86 5610.15L1395.86 5624.65L1346.86 5667.15L1216.86 5685.65L1133.36 5728.15V5653.15H1076.36L984.361 5581.65L1029.36 5514.65L1007.36 5449.15V5359.65L848.861 5236.65L912.861 5122.15L1007.36 5141.65V5040.65L1232.36 4952.65L1312.86 4867.65L1424.86 4779.65L1470.36 4607.15L1514.36 4460.65L1626.86 4420.65L1685.36 4477.15L1765.86 4450.15L1802.36 4517.15V4585.15L1834.86 4651.15L1802.36 4720.15L1876.86 4800.65L1931.36 4758.65L2023.36 4800.65L2190.36 4773.65L2251.36 4720.15L2278.36 4800.65L2295.86 4854.65H2361.86L2394.86 4908.65H2478.86L2511.86 4938.65L2532.86 4883.65L2744.36 4938.65L2721.36 4994.15L2664.36 5038.65L2697.36 5100.65L2664.36 5136.15L2766.36 5226.15L2846.36 5157.15" stroke="black" stroke-width="34"/>
</svg>
