<svg width="2429" height="1355" viewBox="0 0 2429 1355" fill="none" xmlns="http://www.w3.org/2000/svg">
<path d="M2019.47 755.547H2082.97L2153.47 821.547L2251.97 807.547L2373.97 911.047L2322.47 1074.55L2401.47 1198.55L2301.97 1223.55L2220.47 1190.55L1684.97 1123.55L1651.97 1160.05L1607.47 1123.55L1567.97 1148.05L1509.97 1113.55L1358.97 1123.55L1291.97 1190.55H1238.97L1196.47 1223.55L1122.97 1190.55L1049.97 1266.05L943.973 1223.55H774.473L676.973 1209.05L568.973 1223.55L519.973 1266.05L389.973 1284.55L306.473 1327.05V1252.05H249.473L157.473 1180.55L202.473 1113.55L180.473 1048.05V958.547L21.9727 835.547L85.9727 721.047L180.473 740.547V639.547L405.473 551.547L485.973 466.547L597.973 378.547L643.473 206.047L687.473 59.5474L799.973 19.5474L858.473 76.0474L938.973 49.0474L975.473 116.047V184.047L1007.97 250.047L975.473 319.047L1049.97 399.547L1104.47 357.547L1196.47 399.547L1363.47 372.547L1424.47 319.047L1451.47 399.547L1468.97 453.547H1534.97L1567.97 507.547H1651.97L1684.97 537.547L1705.97 482.547L1917.47 537.547L1894.47 593.047L1837.47 637.547L1870.47 699.547L1837.47 735.047L1939.47 825.047L2019.47 756.047" stroke="black" stroke-width="34"/>
</svg>
