<svg width="2170" height="2116" viewBox="0 0 2170 2116" fill="none" xmlns="http://www.w3.org/2000/svg">
<path d="M2034.17 470.585H2122.67L2150.17 626.585L2029.67 661.085L2081.67 726.085L1993.67 785.085V886.085L1922.17 853.585H1791.67L1734.67 886.085L1663.17 811.085H1605.67L1547.17 918.585L1430.17 1003.59L1524.67 1114.09L1488.67 1202.09L1430.17 1218.59V1279.59L1317.67 1319.59L1273.67 1466.09L1228.17 1638.59L1116.17 1726.59L1035.67 1811.59L810.669 1899.59V2000.59L716.169 1981.09L652.169 2095.59L473.669 2046.09L415.669 1875.59H462.169L473.669 1776.09L359.169 1703.09L276.669 1726.59L209.669 1693.59V1513.09H164.669V1415.59L19.6689 1383.59L38.6689 1279.59L186.669 1257.09L285.169 1029.59L230.169 726.085L186.669 683.585L230.169 626.585L209.669 419.585L123.669 340.585L242.169 263.085L186.669 37.0854L252.669 79.0854L425.669 63.5854L484.669 152.585L594.169 127.585V79.0854L675.669 152.585L716.169 127.585L792.669 181.085H1116.17L1317.67 323.585L1663.17 283.585L1734.67 323.585L1766.17 302.585H1811.67L1870.67 253.585L1965.67 368.085L2034.17 470.585Z" stroke="black" stroke-width="34"/>
</svg>
