<svg width="2807" height="1009" viewBox="0 0 2807 1009" fill="none" xmlns="http://www.w3.org/2000/svg">
<path d="M2739.14 125.728L2787.64 157.228L2759.64 299.228H2672.14L2600.64 377.728L2442.64 435.728L2274.64 451.728L2178.64 539.228L1959.14 571.228L1735.64 597.228L1532.14 685.228L1480.14 725.228L1496.14 850.728L1426.14 952.728H1272.64L1212.64 978.728L1108.64 936.728H1013.14L929.141 990.728L528.141 936.728L172.641 886.728L18.6406 838.728L30.6406 743.228L172.641 549.228L64.6406 359.728L82.6406 299.228L228.641 325.728L318.141 251.728L456.141 359.728L528.141 311.728L641.641 325.728L667.641 407.728L703.641 359.728L883.141 597.228L917.141 507.228L989.141 539.228L1025.14 451.728L1108.64 421.728V489.728L1234.64 507.228L1256.64 407.728L1350.64 435.728L1462.14 387.728V275.728H1512.14L1545.64 212.728L1675.14 325.728L1749.14 299.228H1889.14L1918.14 206.228L1985.64 232.728L2033.14 174.228L2132.64 80.728L2333.64 105.228L2357.64 80.728L2541.64 105.228L2600.64 18.228L2759.64 39.228L2739.14 125.728Z" stroke="black" stroke-width="34"/>
</svg>
