<svg width="1611" height="1801" viewBox="0 0 1611 1801" fill="none" xmlns="http://www.w3.org/2000/svg">
<path d="M1594.38 736.967L1468.88 637.967L1507.88 608.967L1458.38 591.467L1468.88 541.467H1529.38L1547.38 363.467L1589.88 295.967L1561.88 214.967L1533.88 258.967L1500.38 221.467L1449.88 258.967L1408.88 186.467L1318.88 168.467L1142.38 98.9668L988.881 71.9668L927.381 19.4668L819.381 60.4668H737.381L717.381 162.967L744.881 318.967L624.381 353.467L676.381 418.467L588.381 477.467V578.467L516.881 545.967H386.381L329.381 578.467L257.881 503.467H200.381L141.881 610.967L24.8809 695.967L119.381 806.467L83.3809 894.467L24.8809 910.967V971.967L83.3809 1028.47L163.881 1001.47L200.381 1068.47V1136.47L232.881 1202.47L200.381 1271.47L274.881 1351.97L329.381 1309.97L421.381 1351.97L588.381 1324.97L649.381 1271.47L676.381 1351.97L693.881 1405.97H759.881L792.881 1459.97H876.881L909.881 1489.97L930.881 1434.97L1142.38 1489.97L1119.38 1545.47L1062.38 1589.97L1095.38 1651.97L1062.38 1687.47L1164.38 1777.47L1244.38 1708.47L1292.38 1589.97L1354.38 1545.47V1434.97L1442.38 1109.47L1342.38 1068.47V964.967L1545.38 852.967L1594.38 737.467" stroke="black" stroke-width="34"/>
</svg>
