<svg width="2776" height="1649" viewBox="0 0 2776 1649" fill="none" xmlns="http://www.w3.org/2000/svg">
<path d="M2752.77 883.334L2676.27 772.834L2634.77 678.834L2416.27 647.834L2159.77 509.334L1934.77 453.834L1789.27 367.334L1619.27 311.834L1504.77 245.834L1314.27 169.834L1151.27 148.834L912.27 20.834L811.77 117.834L662.77 367.334L607.27 398.334L510.27 367.334L340.77 398.334L226.27 509.334L104.77 554.334L21.7695 734.334L662.77 1126.33L770.27 1160.83L732.27 1236.83L811.77 1344.33H950.27L1089.27 1406.83L1050.77 1510.83L1120.27 1552.33L1182.77 1510.83L1279.77 1552.33L1480.77 1576.83L1504.77 1552.33L1688.77 1576.83L1747.77 1489.83L1906.77 1510.83L1886.27 1597.33L1934.77 1628.83L2021.27 1576.83L2159.77 1534.83L2308.77 1451.83H2416.27L2544.77 1264.83L2634.77 1077.83L2697.27 1126.33V1056.83L2634.77 1008.33L2676.27 942.334L2752.77 883.334Z" stroke="black" stroke-width="34"/>
</svg>
