<svg width="1984" height="2915" viewBox="0 0 1984 2915" fill="none" xmlns="http://www.w3.org/2000/svg">
<path d="M1962.86 2723.28V2873.28L1931.36 2894.28L1859.86 2854.28L1514.36 2894.28L1312.86 2751.78H989.361L912.861 2698.28L872.361 2723.28L790.861 2649.78V2698.28L681.361 2723.28L622.361 2634.28L449.361 2649.78L383.361 2607.78L319.361 2484.28L184.361 2537.78L113.361 2445.78L184.361 2351.78L153.861 2216.78L207.361 2117.28L69.8613 1837.28L18.8613 1595.28L69.8613 1556.78L207.361 1595.28L276.361 1651.28L342.361 1595.28L319.361 1470.28L242.861 1439.78V1363.28L268.361 1322.78V1207.78L319.361 1190.28L411.361 1363.28L428.861 1419.28L724.361 1235.78L701.361 1052.28L622.361 1032.28V1149.28L462.361 1235.78L411.361 1052.28V728.777L222.861 652.777L153.861 568.277L166.361 469.277L113.361 402.777L69.8613 290.777L151.361 278.277L184.361 372.277L306.861 397.777L411.361 425.777L467.361 359.777L357.861 339.277V290.777L428.861 245.777V176.277L357.861 115.277L428.861 25.7771L497.861 97.2771L533.361 227.277L663.361 316.777L724.361 245.777H835.861L954.861 316.777L1063.36 495.777L1179.36 874.777L1237.36 1333.28L1300.36 1755.28L1411.36 2101.28L1962.86 2607.78L1931.36 2675.78L1962.86 2723.28Z" stroke="black" stroke-width="34"/>
</svg>
