<svg width="1920" height="3629" viewBox="0 0 1920 3629" fill="none" xmlns="http://www.w3.org/2000/svg">
<path d="M1692.58 2751.15L1902.58 2463.65V2345.15L1788.08 1936.15L1762.08 1538.15L1836.08 1342.65L1773.08 1154.15L1665.08 1038.65L1563.08 1020.15L1459.58 936.652L1413.58 728.652L1282.58 506.152L1243.58 329.152L1236.08 230.152L1171.08 219.652L1202.08 168.652L1156.08 109.652L1139.08 42.1516L1034.08 18.6516L944.581 109.652L1015.58 131.652L972.081 182.152L883.081 168.652L856.581 219.652L890.581 293.652L822.581 387.652L847.581 506.152L916.581 574.152L869.081 640.652L748.581 600.652L731.581 680.652L693.081 690.152L653.081 592.652L492.581 565.152L344.581 552.652L173.081 720.652L45.0811 690.152L23.5811 734.652L133.081 773.152V816.152L252.081 887.152L360.581 1066.15L476.581 1445.15L534.581 1903.65L597.581 2325.65L708.581 2671.65L1260.08 3178.15L1228.58 3246.15L1260.08 3293.65V3443.65H1305.58L1364.58 3394.65L1459.58 3509.15L1528.08 3611.65H1616.58L1636.58 3509.15H1718.58L1826.58 3468.15L1866.58 3394.65L1746.58 3314.65L1718.58 3119.15L1746.58 2901.65L1692.58 2751.15Z" stroke="black" stroke-width="34"/>
</svg>
