<svg width="1976" height="1531" viewBox="0 0 1976 1531" fill="none" xmlns="http://www.w3.org/2000/svg">
<path d="M1784.55 796.799L1906.05 116.799L1803.55 55.7993L1747.05 19.2993L1530.55 116.799L857.047 232.299L338.547 193.799L229.047 232.299L19.0469 519.799L73.0469 670.299L45.0469 887.799L73.0469 1083.3L193.047 1163.3L153.047 1236.8L214.547 1289.3L368.047 1316.3L544.547 1385.8L634.547 1403.8L675.547 1476.3L726.047 1438.8L759.547 1476.3L787.547 1432.3L815.547 1513.3H933.047L986.547 1423.8L1100.55 1331.3L1250.55 1356.3L1332.05 1270.8L1927.05 985.799L1955.55 839.799L1784.55 796.799Z" stroke="black" stroke-width="34"/>
</svg>
